<svg width="40" height="40" viewBox="0 0 40 40" fill="none" xmlns="http://www.w3.org/2000/svg">
<path fill-rule="evenodd" clip-rule="evenodd" d="M20.3633 12.8627C20.8533 13.3489 20.8564 14.1404 20.3701 14.6304L16.2825 18.75H26.7188C27.4091 18.75 27.9688 19.3096 27.9688 20C27.9688 20.6904 27.4091 21.25 26.7188 21.25H16.2825L20.3701 25.3696C20.8564 25.8596 20.8533 26.6511 20.3633 27.1373C19.8732 27.6236 19.0818 27.6205 18.5955 27.1304L12.3939 20.8804C11.9104 20.3931 11.9104 19.6069 12.3939 19.1196L18.5955 12.8696C19.0818 12.3795 19.8732 12.3764 20.3633 12.8627Z" fill="white"/>
<path fill-rule="evenodd" clip-rule="evenodd" d="M3.75 20C3.75 11.0284 11.0284 3.75 20 3.75C28.9716 3.75 36.25 11.0284 36.25 20C36.25 28.9716 28.9716 36.25 20 36.25C11.0284 36.25 3.75 28.9716 3.75 20ZM20 6.25C12.4091 6.25 6.25 12.4091 6.25 20C6.25 27.5909 12.4091 33.75 20 33.75C27.5909 33.75 33.75 27.5909 33.75 20C33.75 12.4091 27.5909 6.25 20 6.25Z" fill="white"/>
</svg>